<svg width="15" height="15" viewBox="0 0 15 15" fill="none" xmlns="http://www.w3.org/2000/svg">
<g clip-path="url(#clip0_44_917)">
<path d="M7.5 0.185181C3.35812 0.185181 0 3.54284 0 7.68518C0 10.9988 2.14922 13.8103 5.12906 14.8017C5.50406 14.8711 5.64188 14.6391 5.64188 14.4408C5.64188 14.2622 5.63484 13.6711 5.63156 13.0444C3.54469 13.4982 3.10453 12.1594 3.10453 12.1594C2.76328 11.2927 2.27203 11.0621 2.27203 11.0621C1.59141 10.5966 2.32359 10.606 2.32359 10.606C3.07641 10.6589 3.47297 11.3789 3.47297 11.3789C4.14188 12.5255 5.2275 12.1941 5.65547 12.0024C5.7225 11.5177 5.91703 11.1867 6.13172 10.9992C4.46578 10.8099 2.71453 10.1663 2.71453 7.29284C2.71453 6.47393 3.0075 5.80502 3.4875 5.27956C3.40969 5.09065 3.15281 4.32799 3.56016 3.29487C3.56016 3.29487 4.19016 3.09331 5.62313 4.06362C6.22125 3.89721 6.86297 3.81424 7.50047 3.81096C8.1375 3.81377 8.77969 3.89721 9.37922 4.06362C10.8108 3.09331 11.4394 3.29487 11.4394 3.29487C11.8477 4.32799 11.5908 5.09065 11.513 5.27956C11.9939 5.80456 12.285 6.47393 12.285 7.29284C12.285 10.1733 10.5305 10.8075 8.86031 10.9936C9.12937 11.2266 9.36891 11.6827 9.36891 12.3825C9.36891 13.3861 9.36 14.1938 9.36 14.4408C9.36 14.6405 9.495 14.8744 9.87516 14.8008C12.8536 13.808 15 10.9978 15 7.68518C15 3.54284 11.6419 0.185181 7.5 0.185181Z" fill="black"/>
</g>
<defs>
<clipPath id="clip0_44_917">
<rect width="15" height="15" fill="white"/>
</clipPath>
</defs>
</svg>
