<svg width="15" height="15" viewBox="0 0 15 15" fill="none" xmlns="http://www.w3.org/2000/svg">
<path d="M5.625 5.625H8.21933V6.95481H8.25642C8.61735 6.30744 9.50092 5.625 10.8176 5.625C13.556 5.625 14.0625 7.32973 14.0625 9.54689V14.0625H11.3583V10.0594C11.3583 9.10456 11.3387 7.87641 9.95159 7.87641C8.54317 7.87641 8.32825 8.91624 8.32825 9.99006V14.0625H5.625V5.625Z" fill="black"/>
<path d="M0.9375 5.625H3.75V14.0625H0.9375V5.625Z" fill="black"/>
<path d="M3.75 3.28125C3.75 4.05791 3.12041 4.6875 2.34375 4.6875C1.56709 4.6875 0.9375 4.05791 0.9375 3.28125C0.9375 2.50459 1.56709 1.875 2.34375 1.875C3.12041 1.875 3.75 2.50459 3.75 3.28125Z" fill="black"/>
</svg>
