<svg width="15" height="15" viewBox="0 0 15 15" fill="none" xmlns="http://www.w3.org/2000/svg">
<path d="M1.1805 3.9645C1.5465 4.161 6.6165 6.885 6.8055 6.98625C6.9945 7.0875 7.239 7.1355 7.485 7.1355C7.731 7.1355 7.9755 7.0875 8.1645 6.98625C8.3535 6.885 13.4235 4.161 13.7895 3.9645C14.1562 3.76725 14.5028 3 13.83 3H1.14075C0.467999 3 0.814499 3.76725 1.1805 3.9645ZM13.9598 5.61675C13.5435 5.8335 8.4195 8.5035 8.1645 8.637C7.9095 8.7705 7.731 8.78625 7.485 8.78625C7.239 8.78625 7.0605 8.7705 6.8055 8.637C6.5505 8.5035 1.45575 5.83275 1.0395 5.616C0.746999 5.463 0.749999 5.64225 0.749999 5.78025C0.749999 5.91825 0.749999 11.25 0.749999 11.25C0.749999 11.565 1.1745 12 1.5 12H13.5C13.8255 12 14.25 11.565 14.25 11.25C14.25 11.25 14.25 5.919 14.25 5.781C14.25 5.643 14.253 5.46375 13.9598 5.61675Z" fill="black"/>
</svg>
